<?xml version="1.0" ?>

<!-- Uploaded to: SVG Repo, www.svgrepo.com, Generator: SVG Repo Mixer Tools -->
<svg fill="#000000" width="800px" height="800px" viewBox="0 0 512 512" version="1.1" xml:space="preserve" xmlns="http://www.w3.org/2000/svg" xmlns:xlink="http://www.w3.org/1999/xlink">

<g id="airplane-travel-heart-love-valentine">

<path d="M463.84,267.92L456,264h-52c-6.64,0-12-5.36-12-12c0-6.64,5.36-12,12-12h23.2l-9.6-12c-6.08-7.6-15.28-12-24.96-12H320   l-80.16-50.96c-5.12-3.28-11.04-5.04-17.12-5.04h-19.44c-7.12,0-10.64,8.64-5.6,13.68L240,216H104l-29.68-52   c-1.44-2.48-4.08-4-6.96-4h-18.4c-4.8,0-8.48,4.16-8,8.88l5.84,52c0.8,7.2,4.08,14,9.2,19.12l20,20l-22.32,22.32   c-5.04,5.04-1.52,13.68,5.6,13.68h11.84c5.84,0,11.52-1.6,16.48-4.56c16.905-10.205,3.989-2.441,65.52-39.36   c3.84-2.24,8.72-1.04,10.96,2.8c2.436,3.898,0.974,8.696-2.72,10.96l-44.16,26.48c6.72,2.4,13.92,3.68,21.28,3.68H240l-42.32,42.32   c-5.04,5.04-1.52,13.68,5.6,13.68h18.48c6.64,0,13.12-2.08,18.56-6c84.228-60.094,63.133-45.041,97.2-69.36   c3.52-2.56,8.56-1.76,11.12,1.84c2.673,3.701,1.679,8.723-1.84,11.2l-8.88,6.32H457.2c8.16,0,14.8-6.64,14.8-14.8v-0.08   C472,275.52,468.8,270.4,463.84,267.92z M200,248c0,4.422-3.578,8-8,8s-8-3.578-8-8v-8c0-4.422,3.578-8,8-8s8,3.578,8,8V248z    M232,248c0,4.422-3.578,8-8,8s-8-3.578-8-8v-8c0-4.422,3.578-8,8-8s8,3.578,8,8V248z M264,248c0,4.422-3.578,8-8,8s-8-3.578-8-8   v-8c0-4.422,3.578-8,8-8s8,3.578,8,8V248z M296,248c0,4.422-3.578,8-8,8s-8-3.578-8-8v-8c0-4.422,3.578-8,8-8s8,3.578,8,8V248z    M328,248c0,4.422-3.578,8-8,8s-8-3.578-8-8v-8c0-4.422,3.578-8,8-8s8,3.578,8,8V248z M360,248c0,4.422-3.578,8-8,8s-8-3.578-8-8   v-8c0-4.422,3.578-8,8-8s8,3.578,8,8V248z M153.68,137.666l-19.952,20.461c-3.14,3.22-8.315,3.22-11.455,0l-19.952-20.46   c-7.017-7.196-8.387-18.748-2.105-26.594c7.145-8.922,20.022-9.403,27.784-1.442c7.763-7.96,20.639-7.48,27.784,1.442   C162.067,118.917,160.697,130.47,153.68,137.666z M409.68,381.666l-19.952,20.461c-3.14,3.22-8.315,3.22-11.455,0l-19.952-20.46   c-7.017-7.196-8.387-18.748-2.104-26.594c7.145-8.922,20.022-9.403,27.784-1.442c7.763-7.96,20.639-7.48,27.784,1.442   C418.067,362.917,416.697,374.47,409.68,381.666z"/>

</g>

<g id="Layer_1"/>

</svg>